<svg xmlns="http://www.w3.org/2000/svg" width="1920" height="1016" viewBox="0 0 1920 1016" fill="none"><g clip-path="url(#clip0_1749_5290)"><g opacity="0.7"><g filter="url(#filter0_f_1749_5290)"><path d="M1708.5 -41.0149C1574.52 -197.939 1328.06 -289.232 1578.07 -354.373C1828.08 -419.514 2139.35 -345.109 2273.33 -188.185C2407.3 -31.2609 2313.24 148.758 2063.23 213.899C1813.22 279.04 1842.47 115.909 1708.5 -41.0149Z" fill="#75D2FB"></path></g><g filter="url(#filter1_f_1749_5290)"><ellipse cx="237.097" cy="445.887" rx="237.097" ry="445.887" transform="matrix(0.249696 0.968324 -0.996918 0.0784555 1697.03 -490)" fill="#5FA2FF"></ellipse></g></g><g opacity="0.7"><g filter="url(#filter2_f_1749_5290)"><path d="M422.495 -648.733C103.553 -603.298 -106.294 -224.557 -46.2117 197.208C13.8708 618.973 200.743 78.9546 519.685 33.5198C838.627 -11.9151 1168.86 454.439 1108.78 32.6738C1048.7 -389.091 741.437 -694.167 422.495 -648.733Z" fill="#D9D3FF"></path></g><g filter="url(#filter3_f_1749_5290)"><ellipse cx="237.097" cy="445.887" rx="237.097" ry="445.887" transform="matrix(0.249696 0.968324 -0.996918 0.0784555 1044.03 -353)" fill="#D3FEE8"></ellipse></g></g></g><defs><filter id="filter0_f_1749_5290" x="850.551" y="-997.962" width="2103.78" height="1846.57" filterUnits="userSpaceOnUse" color-interpolation-filters="sRGB"><feGaussianBlur stdDeviation="310"></feGaussianBlur></filter><filter id="filter1_f_1749_5290" x="443.226" y="-877.7" width="1736.98" height="1304.54" filterUnits="userSpaceOnUse" color-interpolation-filters="sRGB"><feGaussianBlur stdDeviation="210"></feGaussianBlur></filter><filter id="filter2_f_1749_5290" x="-376.475" y="-973.216" width="1812.39" height="1650.47" filterUnits="userSpaceOnUse" color-interpolation-filters="sRGB"><feGaussianBlur stdDeviation="160"></feGaussianBlur></filter><filter id="filter3_f_1749_5290" x="-209.774" y="-740.7" width="1736.98" height="1304.54" filterUnits="userSpaceOnUse" color-interpolation-filters="sRGB"><feGaussianBlur stdDeviation="210"></feGaussianBlur></filter><clipPath id="clip0_1749_5290"><rect width="1920" height="1016" fill="white"></rect></clipPath></defs></svg>