<svg width="107" height="121" viewBox="0 0 107 121" fill="none" xmlns="http://www.w3.org/2000/svg">
<path d="M48.5303 20.9177L57.5303 36.9177C58.5783 36.8979 59.4701 36.9177 60.5303 36.9177C63.2484 36.9177 65.8914 36.7968 68.5303 36.9177L48.5303 0.917725L25.5303 40.9177C29.44 40.0024 33.1941 39.515 37.5303 38.9177L48.5303 20.9177ZM31.5303 36.9177L48.5303 6.91772L63.5303 33.9177C62.5909 33.9016 61.4682 33.9177 60.5303 33.9177C60.0466 33.9177 59.0239 33.9141 58.5303 33.9177L50.5303 18.9177L48.5303 14.9177L45.5303 18.9177L36.5303 35.9177C34.9408 36.1537 33.0776 36.6371 31.5303 36.9177Z" fill="#5B5B5B"/>
<path d="M34.5283 90.9178C22.82 85.7309 15.5283 78.5438 15.5283 70.9178C15.5283 68.3792 16.0387 66.2654 17.5283 63.9178H84.5283L71.5283 42.9178C76.1399 42.5315 81.638 41.9178 86.5283 41.9178C93.1158 41.9178 99.4768 42.228 105.528 42.9178C105.18 42.8038 104.883 43.0289 104.528 42.9178C104.883 43.0282 105.18 42.8038 105.528 42.9178C105.935 42.9636 106.125 42.8684 106.528 42.9178C105.462 42.6455 104.634 43.1661 103.528 42.9178C93.6446 40.6958 81.6314 38.9309 69.5283 38.9178C69.457 38.9164 69.6004 38.9178 69.5283 38.9178C66.7738 38.9178 64.1986 38.7907 61.5283 38.9178C60.638 38.9599 59.4078 38.8619 58.5283 38.9178C50.0961 39.4508 42.6611 41.2695 35.5283 42.9178C34.9124 43.0601 34.1327 42.7682 33.5283 42.9178C29.3 43.9656 25.0911 45.5381 21.5283 46.9178C8.38223 52.0045 0.52832 58.9803 0.52832 66.9178C0.529041 77.1071 14.3633 86.0345 34.5283 90.9178ZM61.5283 43.9178L67.5283 53.9178H28.5283C36.6638 49.3438 48.3714 45.9263 61.5283 43.9178Z" fill="#5B5B5B"/>
<path d="M5.83659 111.918C6.18506 111.745 6.57592 111.211 6.83659 110.918C7.09657 110.625 7.68842 110.294 7.83659 109.918C7.98407 109.542 7.83659 109.339 7.83659 108.918V107.918H5.83659V108.918C5.83659 109.186 5.90725 108.739 5.83659 108.918C5.76593 109.097 5.94292 109.816 5.83659 109.918C5.71792 110.02 4.97241 109.872 4.83659 109.918C4.70077 109.963 4.95458 109.918 4.83659 109.918C4.42295 109.918 3.99642 110.186 3.83659 109.918C3.67676 109.65 3.83659 109.313 3.83659 108.918V101.918C3.83659 101.458 3.68842 100.218 3.83659 99.9176C3.98407 99.6179 4.38728 99.9176 4.83659 99.9176C5.17958 99.9176 5.6356 99.6372 5.83659 99.9176C6.03758 100.198 5.83659 100.535 5.83659 100.918V101.918H7.83659V100.918C7.83659 100.445 7.98407 100.32 7.83659 99.9176C7.68842 99.5158 7.09657 99.2115 6.83659 98.9176C6.30427 98.3182 5.68788 97.9176 4.83659 97.9176C4.39894 97.9176 4.19741 97.7585 3.83659 97.9176C3.47577 98.0775 3.09657 98.6372 2.83659 98.9176C2.57592 99.1981 1.97859 99.535 1.83659 99.9176C1.69459 100.3 1.83659 100.472 1.83659 100.918V108.918C1.83659 109.543 1.65275 109.516 1.83659 109.918C2.01975 110.32 2.55328 110.662 2.83659 110.918C3.12058 111.173 3.48194 111.816 3.83659 111.918C4.19124 112.02 4.4936 111.918 4.83659 111.918C5.23857 111.918 5.48811 112.089 5.83659 111.918Z" fill="#5B5B5B"/>
<path d="M22.8369 100.918C22.8369 100.368 23.0082 100.34 22.8369 99.9177C22.6656 99.4959 22.11 99.1987 21.8369 98.9177C21.5518 98.6494 21.1847 98.0586 20.8369 97.9177C20.489 97.7776 20.19 97.9177 19.8369 97.9177C19.483 97.9177 19.1847 97.7776 18.8369 97.9177C18.489 98.0586 18.11 98.6494 17.8369 98.9177C17.5518 99.1987 17.0075 99.4959 16.8369 99.9177C16.6656 100.34 16.8369 100.368 16.8369 100.918V108.918C16.8369 109.493 16.6656 109.509 16.8369 109.918C17.0082 110.327 17.5518 110.65 17.8369 110.918C18.1107 111.199 18.489 111.778 18.8369 111.918C19.1841 112.058 19.483 111.918 19.8369 111.918C20.19 111.918 20.489 112.058 20.8369 111.918C21.1841 111.777 21.5518 111.199 21.8369 110.918C22.1107 110.649 22.6662 110.327 22.8369 109.918C23.0075 109.509 22.8369 109.493 22.8369 108.918V100.918ZM20.8369 108.918C20.8369 109.391 21.0703 109.695 20.8369 109.918C20.6034 110.142 20.1556 109.918 19.8369 109.918C19.5174 109.918 19.0703 110.141 18.8369 109.918C18.6034 109.695 18.8369 109.391 18.8369 108.918V100.918C18.8369 100.446 18.6028 100.142 18.8369 99.9177C19.0703 99.6946 19.5174 99.9177 19.8369 99.9177C20.1556 99.9177 20.6034 99.6939 20.8369 99.9177C21.0703 100.142 20.8369 100.446 20.8369 100.918V108.918Z" fill="#5B5B5B"/>
<path d="M36.8369 104.918H35.8369L33.8369 97.9177H31.8369V110.918H33.8369V102.918L35.8369 108.918H36.8369L38.8369 102.918V110.918H40.8369V97.9177H38.8369L36.8369 104.918Z" fill="#5B5B5B"/>
<path d="M54.8369 98.9178C54.5256 98.5782 54.2205 98.0506 53.8369 97.9178C53.4533 97.7842 53.34 97.9178 52.8369 97.9178H49.8369V110.918H51.8369V105.918H52.8369C53.5193 105.918 53.4179 106.154 53.8369 105.918C54.256 105.682 54.5853 105.342 54.8369 104.918C55.053 104.566 55.7709 103.318 55.8369 102.918C55.9022 102.518 55.8369 102.499 55.8369 101.918C55.8369 101.142 55.9571 100.372 55.8369 99.9178C55.7188 99.4622 55.1482 99.2573 54.8369 98.9178ZM53.8369 102.918C53.8188 103.185 53.9328 103.736 53.8369 103.918C53.741 104.112 54.0405 103.809 53.8369 103.918C53.6333 104.027 53.208 103.918 52.8369 103.918H51.8369V99.9178H52.8369C53.1962 99.9178 53.6451 99.8088 53.8369 99.9178C53.741 99.7118 54.028 100.027 53.8369 99.9178C53.9328 100.124 53.8244 100.645 53.8369 100.918C53.8487 101.191 53.8369 101.615 53.8369 101.918C53.8362 102.245 53.855 102.651 53.8369 102.918Z" fill="#5B5B5B"/>
<path d="M66.8369 97.9177L63.8369 110.918H65.8369L66.8369 107.918H68.8369L69.8369 110.918H71.8369L68.8369 97.9177H66.8369ZM66.8369 105.918L67.8369 101.918L68.8369 105.918H66.8369Z" fill="#5B5B5B"/>
<path d="M86.8369 110.918V97.9177H84.8369V105.918L81.8369 97.9177H79.8369V110.918H81.8369V102.918L84.8369 110.918H86.8369Z" fill="#5B5B5B"/>
<path d="M98.8369 110.918V105.918L101.837 97.9177H99.8369L98.8369 102.918H97.8369L96.8369 97.9177H94.8369L97.8369 105.918V110.918H98.8369Z" fill="#5B5B5B"/>
<path d="M3.83691 119.918V116.918H4.83691V115.918H1.83691V116.918H2.83691V119.918H3.83691Z" fill="#5B5B5B"/>
<path d="M7.83691 115.918L6.83691 119.918H7.83691V118.918H8.83691V119.918H9.83691L8.83691 115.918H7.83691ZM7.83691 118.918V116.918H8.83691V118.918H7.83691Z" fill="#5B5B5B"/>
<path d="M14.8367 116.918C14.7317 116.969 14.9012 116.841 14.8367 116.918C14.9394 116.868 15.6942 116.921 15.8367 116.918C15.7009 116.816 16.0309 116.921 15.8367 116.918C15.7872 116.767 15.9672 117.023 15.8367 116.918H16.8367C16.7729 116.605 16.0804 116.13 15.8367 115.918C15.5929 115.707 16.2237 115.921 15.8367 115.918C15.5216 115.921 15.0474 115.781 14.8367 115.918C14.6221 116.053 13.9334 116.745 13.8367 116.918C13.7767 117.009 13.8659 116.771 13.8367 116.918C13.8089 117.065 13.8367 117.484 13.8367 117.918C13.8367 118.345 13.8089 118.767 13.8367 118.918C13.8149 118.865 13.8509 118.998 13.8367 118.918C13.8074 118.861 13.8599 118.969 13.8367 118.918C13.9342 119.09 14.6229 119.786 14.8367 119.918C15.0474 120.055 15.5216 119.911 15.8367 119.918C16.2455 119.911 16.5666 120.169 16.8367 119.918C17.1037 119.665 16.8299 119.292 16.8367 118.918V117.918H15.8367V118.918C15.8329 119.152 15.9904 118.774 15.8367 118.918C15.6822 119.068 16.0729 118.918 15.8367 118.918C15.6942 118.918 14.9394 118.974 14.8367 118.918C14.7317 118.87 14.9012 118.995 14.8367 118.918C14.7579 118.837 14.8629 119.048 14.8367 118.918C14.8074 118.788 14.8367 118.285 14.8367 117.918C14.8367 117.551 14.8074 117.051 14.8367 116.918C14.8614 116.794 14.7579 116.998 14.8367 116.918Z" fill="#5B5B5B"/>
<path d="M20.8369 115.972V119.972H22.8369V118.972H20.8369V115.972Z" fill="#5B5B5B"/>
<path d="M27.8369 115.972H26.8369V119.972H27.8369V115.972Z" fill="#5B5B5B"/>
<path d="M31.8369 115.972V119.972H32.8369V116.972L33.8369 119.972H34.8369V115.972H33.8369V118.972L32.8369 115.972H31.8369Z" fill="#5B5B5B"/>
<path d="M40.8369 116.972V115.972H38.8369V119.972H40.8369V118.972H38.8369V117.972H40.8369H38.8369V116.972H40.8369Z" fill="#5B5B5B"/>
<path d="M48.8367 116.972C48.7767 117.063 48.8659 116.826 48.8367 116.972C48.8097 117.119 48.8367 117.539 48.8367 117.972C48.8367 118.399 48.8089 118.822 48.8367 118.972C48.8149 118.919 48.8517 119.053 48.8367 118.972C48.8074 118.916 48.8607 119.023 48.8367 118.972C48.9342 119.145 49.6222 119.841 49.8367 119.972C50.0474 120.109 50.5217 119.965 50.8367 119.972C51.2454 119.965 51.5674 120.223 51.8367 119.972C52.1044 119.719 51.8292 119.347 51.8367 118.972V117.972H50.8367V118.972C50.8329 119.206 50.9904 118.829 50.8367 118.972C50.6829 119.123 51.0729 118.972 50.8367 118.972C50.6934 118.972 49.9387 119.028 49.8367 118.972C49.7324 118.925 49.9012 119.049 49.8367 118.972C49.7579 118.892 49.8622 119.102 49.8367 118.972C49.8074 118.842 49.8367 118.34 49.8367 117.972C49.8367 117.606 49.8074 117.105 49.8367 116.972C49.7579 117.053 49.8622 116.846 49.8367 116.972C49.7324 117.023 49.9012 116.895 49.8367 116.972C49.9394 116.923 50.6934 116.976 50.8367 116.972C50.7009 116.871 51.0309 116.976 50.8367 116.972C50.7872 116.822 50.9664 117.078 50.8367 116.972H51.8367C51.7729 116.66 51.0804 116.184 50.8367 115.972C50.5929 115.762 51.2237 115.976 50.8367 115.972C50.5217 115.976 50.0474 115.836 49.8367 115.972C49.6222 116.11 48.9334 116.8 48.8367 116.972Z" fill="#5B5B5B"/>
<path d="M55.8367 117C55.774 117.093 55.8669 116.85 55.8367 117C55.8081 117.15 55.8367 117.557 55.8367 118C55.8367 118.436 55.8081 118.846 55.8367 119C55.8143 118.946 55.8522 119.082 55.8367 119C55.8065 118.942 55.8607 119.052 55.8367 119C55.9365 119.176 56.6154 119.866 56.8367 120C57.0541 120.14 57.5117 119.993 57.8367 120C57.617 120.14 58.1655 119.993 57.8367 120C58.0541 119.866 58.7408 119.175 58.8367 119C58.8104 119.153 58.9063 118.908 58.8367 119C58.8615 118.846 58.8367 118.436 58.8367 118C58.8367 117.556 58.8615 117.15 58.8367 117C58.8104 116.85 58.9063 117.092 58.8367 117C58.74 116.823 58.0541 116.138 57.8367 116C57.617 115.86 58.1655 116.003 57.8367 116C57.5117 116.003 57.0541 115.861 56.8367 116C56.6162 116.138 55.9365 116.823 55.8367 117ZM56.8367 117C56.7555 117.082 56.863 116.871 56.8367 117C56.7291 117.052 56.9032 116.921 56.8367 117C56.9427 116.949 57.6897 117.003 57.8367 117C57.7276 116.949 57.986 117.003 57.8367 117C57.774 116.921 57.9404 117.052 57.8367 117C57.8065 116.871 57.9179 117.082 57.8367 117C57.8653 117.135 57.8367 117.625 57.8367 118C57.8367 118.375 57.8653 118.867 57.8367 119C57.8065 119.133 57.9179 118.918 57.8367 119C57.7748 119.078 57.9412 118.951 57.8367 119C57.7276 119.057 57.986 119 57.8367 119C57.6889 119 56.9427 119.057 56.8367 119C56.7284 118.951 56.9032 119.078 56.8367 119C56.7555 118.918 56.863 119.133 56.8367 119C56.8065 118.867 56.8367 118.375 56.8367 118C56.8367 117.625 56.8065 117.135 56.8367 117Z" fill="#5B5B5B"/>
<path d="M62.8369 120H64.8369V119H62.8369V118H64.8369H62.8369V117H64.8369V116H62.8369V120Z" fill="#5B5B5B"/>
<path d="M69.8372 119C69.4119 118.996 68.1463 119.25 67.8372 119C68.2501 119.35 69.2624 120 69.8372 120C70.7255 119.989 70.8176 119.731 70.8372 119C70.8372 118.728 71.0092 118.204 70.8372 118C70.663 117.791 70.2008 118.049 69.8372 118C69.6528 117.977 68.9438 118.017 68.8372 118C68.6456 117.965 68.9235 117.091 68.8372 117C68.7501 116.91 68.8372 117.11 68.8372 117C68.7109 117.092 68.8408 116.816 68.8372 117C68.9576 116.91 69.6564 117 69.8372 117C70.187 117.007 70.5461 116.811 70.8372 117V116C70.4808 115.746 70.3198 116.01 69.8372 116C69.4365 116.003 69.0556 115.797 68.8372 116C68.6122 116.204 67.8372 116.665 67.8372 117C67.8372 117.278 67.6586 117.805 67.8372 118C68.0113 118.189 68.504 117.946 68.8372 118C69.0237 118.025 69.6804 117.979 69.8372 118C70.1775 118.058 69.8408 118.714 69.8372 119C70.3408 118.992 69.8306 119.347 69.8372 119Z" fill="#5B5B5B"/>
<path d="M82.8369 120V116H81.8369V118H80.8369V116H79.8369V120H80.8369V118H81.8369V120H82.8369Z" fill="#5B5B5B"/>
<path d="M87.8369 117V116H85.8369V120H87.8369V119H85.8369V118H87.8369H85.8369V117H87.8369Z" fill="#5B5B5B"/>
<path d="M94.8369 118C95.3578 117.808 95.8292 117.533 95.8369 117C95.8254 116.637 95.0969 116.196 94.8369 116C94.6214 115.827 95.1783 116 94.8369 116H92.8369V120H93.8369V118L94.8369 120H95.8369L94.8369 118ZM93.8369 118V117H94.8369C94.7318 116.919 95.0356 117 94.8369 117C94.8331 116.795 94.9696 117.092 94.8369 117C94.8369 117.17 94.9512 117.884 94.8369 118C94.7211 118.125 95.0693 117.996 94.8369 118H93.8369Z" fill="#5B5B5B"/>
<path d="M100.837 117V116H98.8369V120H100.837V119H98.8369V118H100.837H98.8369V117H100.837Z" fill="#5B5B5B"/>
</svg>
