<svg width="86" height="127" viewBox="0 0 86 127" fill="none" xmlns="http://www.w3.org/2000/svg">
<path d="M13.998 69.9446V89.9446L17.998 93.9446H18.998L30.998 83.9446L13.998 69.9446ZM15.998 74.9446L26.998 83.9446L17.998 90.9446L15.998 88.9446V74.9446Z" fill="#5B5B5B"/>
<path d="M32.998 83.9446V84.9446L19.998 94.9446H44.998L45.998 93.9446H46.998L71.998 72.9446V51.9446L33.998 82.9446L32.998 83.9446ZM69.998 56.9446V71.9446L44.998 91.9446H43.998H26.998L33.998 86.9446L34.998 85.9446L35.998 84.9446L69.998 56.9446Z" fill="#5B5B5B"/>
<path d="M18.998 67.9446L30.998 57.9446L13.998 43.9446V63.9446L17.998 67.9446H18.998ZM15.998 62.9446V48.9446L26.998 57.9446L17.998 64.9446L15.998 62.9446Z" fill="#5B5B5B"/>
<path d="M32.998 58.9446V59.9446L19.998 69.9446H44.998L45.998 68.9446H46.998L71.998 47.9446V26.9446L33.998 57.9446L32.998 58.9446ZM69.998 31.9446V46.9446L44.998 66.9446H43.998H26.998L33.998 61.9446L34.998 60.9446L35.998 59.9446L69.998 31.9446Z" fill="#5B5B5B"/>
<path d="M18.998 41.9446L30.998 31.9446L13.998 17.9446V37.9446L17.998 41.9446H18.998ZM15.998 22.9446L26.998 31.9446L17.998 38.9446L15.998 36.9446V22.9446Z" fill="#5B5B5B"/>
<path d="M33.998 31.9448L32.998 32.9448V33.9448L19.998 43.9448H44.998L45.998 42.9448H46.998L71.998 21.9448V0.944824L33.998 31.9448ZM69.998 20.9448L44.998 40.9448H43.998H26.998L33.998 35.9448L34.998 34.9448L35.998 33.9448L69.998 5.94482V20.9448Z" fill="#5B5B5B"/>
<path d="M1.99752 116.945C2.45695 117.37 3.36133 117.713 3.99752 117.945C4.63297 118.177 5.23603 117.945 5.99752 117.945C6.72172 117.945 7.35685 118.207 7.99752 117.945C8.63819 117.681 9.55152 116.523 9.99752 115.945L8.99752 114.945C8.67234 115.339 7.37342 115.765 6.99752 115.945C6.62162 116.124 6.39654 115.945 5.99752 115.945C5.48663 115.945 5.41071 116.12 4.99752 115.945C4.58433 115.769 4.29436 115.252 3.99752 114.945C3.69994 114.638 3.15937 114.366 2.99752 113.945C2.83493 113.524 2.99752 113.444 2.99752 112.945C2.99752 112.48 2.83493 112.348 2.99752 111.945C3.16011 111.542 3.70068 111.247 3.99752 110.945C4.29436 110.643 4.58433 110.115 4.99752 109.945C5.41071 109.774 5.48663 109.945 5.99752 109.945C6.34135 109.945 6.65892 109.822 6.99752 109.945C7.33613 110.067 7.63505 109.577 7.99752 109.945H9.99752C9.50527 109.41 8.56883 108.168 7.99752 107.945C7.42622 107.722 6.66653 107.945 5.99752 107.945C5.23603 107.945 4.63372 107.712 3.99752 107.945C3.36133 108.177 2.45695 108.515 1.99752 108.945C1.53809 109.374 1.25707 110.336 0.997522 110.945C0.737228 111.554 0.997522 112.2 0.997522 112.945C0.997522 113.672 0.737228 114.349 0.997522 114.945C1.25633 115.54 1.53809 116.52 1.99752 116.945Z" fill="#5B5B5B"/>
<path d="M13.9989 116.945C14.4287 117.371 15.4037 117.713 15.9989 117.945C16.594 118.178 17.2865 117.945 17.9989 117.945C18.7196 117.936 19.3995 118.186 19.9989 117.945C20.5982 117.704 21.5642 117.375 21.9989 116.945C22.4328 116.515 22.756 115.541 22.9989 114.945C23.2417 114.349 22.9989 113.673 22.9989 112.945C22.9989 112.199 23.2424 111.55 22.9989 110.945C22.7553 110.339 22.4328 109.375 21.9989 108.945C21.5649 108.515 20.5982 108.168 19.9989 107.945C19.3995 107.721 18.7196 107.936 17.9989 107.945C17.2865 107.945 16.594 107.712 15.9989 107.945C15.4037 108.178 14.4287 108.515 13.9989 108.945C13.569 109.375 13.2417 110.336 12.9989 110.945C12.7553 111.555 12.9989 112.199 12.9989 112.945C12.9989 113.673 12.7553 114.349 12.9989 114.945C13.2417 115.541 13.5684 116.519 13.9989 116.945ZM14.9989 111.945C15.151 111.542 15.7205 111.247 15.9989 110.945C16.2765 110.643 16.6123 110.116 16.9989 109.945C17.3854 109.774 17.5209 109.945 17.9989 109.945C18.4761 109.945 18.6081 109.774 18.9989 109.945C19.3896 110.116 19.7205 110.643 19.9989 110.945C20.2765 111.247 20.8467 111.542 20.9989 111.945C21.151 112.349 20.9989 112.48 20.9989 112.945C20.9989 113.445 21.151 113.524 20.9989 113.945C20.8467 114.366 20.2765 114.638 19.9989 114.945C19.7212 115.252 19.3896 115.769 18.9989 115.945C18.6081 116.12 18.4761 115.945 17.9989 115.945C17.5209 115.945 17.3854 116.12 16.9989 115.945C16.6123 115.769 16.2765 115.252 15.9989 114.945C15.7205 114.638 15.1503 114.366 14.9989 113.945C14.8467 113.524 14.9989 113.445 14.9989 112.945C14.9989 112.48 14.8467 112.348 14.9989 111.945Z" fill="#5B5B5B"/>
<path d="M36.999 117.945V107.945H34.999L31.999 114.945L29.999 107.945H26.999V117.945H28.999V109.945L30.999 117.945H32.999L34.999 109.945V117.945H36.999Z" fill="#5B5B5B"/>
<path d="M44.999 113.945H45.999C46.5156 113.945 47.5239 114.02 47.999 113.945C48.4741 113.87 48.6388 113.156 48.999 112.945C49.3585 112.734 49.7863 112.33 49.999 111.945C50.211 111.561 49.999 111.573 49.999 110.945C49.999 110.392 50.1969 110.315 49.999 109.945C49.8004 109.574 49.3311 109.165 48.999 108.945C48.667 108.725 48.4371 108.038 47.999 107.945C47.561 107.851 46.4697 107.945 45.999 107.945H42.999V117.945H44.999V113.945ZM44.999 109.945H45.999C46.2295 109.945 46.75 109.917 46.999 109.945C46.7959 109.846 47.2481 109.973 46.999 109.945C47.2021 110.044 47.8701 109.762 47.999 109.945C48.128 110.128 47.999 110.635 47.999 110.945C47.999 111.282 48.1413 111.757 47.999 111.945C47.856 112.132 47.2251 111.851 46.999 111.945C46.773 112.039 47.2666 111.926 46.999 111.945C46.7314 111.964 46.2481 111.945 45.999 111.945H44.999V109.945Z" fill="#5B5B5B"/>
<path d="M56.999 107.945H54.999L50.999 117.945H52.999L53.999 115.945H57.999L58.999 117.945H60.999L56.999 107.945ZM53.999 113.945L55.999 109.945L56.999 113.945H53.999Z" fill="#5B5B5B"/>
<path d="M73.999 117.945V107.945H71.999V114.945L66.999 107.945H64.999V117.945H66.999V109.945L71.999 117.945H73.999Z" fill="#5B5B5B"/>
<path d="M80.999 117.945H81.999V113.945L85.999 107.945H83.999L81.999 111.945L78.999 107.945H76.999L80.999 113.945V117.945Z" fill="#5B5B5B"/>
<path d="M2 122.945H1V121.945H4V122.945H3V125.945H2V122.945Z" fill="#5B5B5B"/>
<path d="M11 124.945H9V125.945H8L10 121.945L12 125.945H11V124.945ZM11 124.945L10 122.945L9 124.945H11Z" fill="#5B5B5B"/>
<path d="M18.0001 123.945H19.0001V124.945C18.9929 125.319 19.2677 125.692 19.0001 125.945C18.7305 126.196 18.4085 125.938 18.0001 125.945C17.6849 125.938 17.2109 126.081 17.0001 125.945C16.786 125.813 16.0973 125.118 16.0001 124.945C15.971 124.889 16.0239 124.996 16.0001 124.945C15.9783 124.892 16.0147 125.025 16.0001 124.945C15.9724 124.795 16.0001 124.372 16.0001 123.945C16.0001 123.511 15.973 123.092 16.0001 122.945C15.9393 123.035 16.0292 122.798 16.0001 122.945C16.0973 122.772 16.786 122.08 17.0001 121.945C17.2109 121.808 17.6849 121.949 18.0001 121.945C17.7563 121.735 18.3867 121.949 18.0001 121.945C18.2439 122.157 18.936 122.633 19.0001 122.945H18.0001C17.9506 122.795 18.1303 123.051 18.0001 122.945C17.8647 122.844 18.1944 122.949 18.0001 122.945C17.8574 122.949 17.1032 122.896 17.0001 122.945C16.8957 122.996 17.0642 122.868 17.0001 122.945C16.9215 123.025 17.0259 122.819 17.0001 122.945C16.971 123.078 17.0001 123.578 17.0001 123.945C17.0001 124.312 16.971 124.815 17.0001 124.945C16.9215 124.864 17.0259 125.075 17.0001 124.945C16.8957 124.897 17.0642 125.022 17.0001 124.945C17.1025 125.001 17.8567 124.945 18.0001 124.945C17.8462 125.095 18.2367 124.945 18.0001 124.945C17.9962 125.179 18.1541 124.801 18.0001 124.945V123.945Z" fill="#5B5B5B"/>
<path d="M26 122.001H27V125.001H29V126.001H26V122.001Z" fill="#5B5B5B"/>
<path d="M34 122.001H35V126.001H34V122.001Z" fill="#5B5B5B"/>
<path d="M40 122.001H41L42 125.001V122.001H43V126.001H42L41 123.001V126.001H40V122.001Z" fill="#5B5B5B"/>
<path d="M48 122.001H51V123.001H49V124.001H51H49V125.001H51V126.001H48V122.001Z" fill="#5B5B5B"/>
<path d="M60 124.001H59V126.001H58V122.001H59V124.001H60V122.001H61V126.001H60V124.001Z" fill="#5B5B5B"/>
<path d="M67 122.001H70V123.001H68V124.001H70H68V125.001H70V126.001H67V122.001Z" fill="#5B5B5B"/>
<path d="M75 122.001H77C76.7844 121.828 77.3413 122.001 77 122.001C77.2602 122.196 77.9892 122.639 78 123.001C77.9926 123.534 77.5211 123.809 77 124.001L78 126.001H77L76 124.001V126.001H75V122.001ZM76 124.001H77C76.8838 124.126 77.2325 123.997 77 124.001C77.1142 123.884 77 123.172 77 123.001C76.9959 122.796 77.1331 123.092 77 123.001C76.8952 122.92 77.1987 123.001 77 123.001H76V124.001Z" fill="#5B5B5B"/>
<path d="M83 122.001H86V123.001H84V124.001H86H84V125.001H86V126.001H83V122.001Z" fill="#5B5B5B"/>
</svg>
