<svg width="85" height="121" viewBox="0 0 85 121" fill="none" xmlns="http://www.w3.org/2000/svg">
<path d="M78.8105 68.9131C77.5658 71.0971 75.485 74.0257 73.8105 75.9131L72.8105 76.9131C65.885 83.8448 56.6321 87.9131 46.8105 87.9131C37.029 87.9131 27.7266 83.7949 20.8105 76.9131C13.8944 70.032 9.81055 61.6451 9.81055 51.9131C9.81055 51.1962 9.76619 49.6365 9.81055 48.9131C9.804 49.0158 9.81491 48.8147 9.81055 48.9131C9.80618 48.9811 9.81491 48.8473 9.81055 48.9131C9.82145 48.7641 9.79746 48.0643 9.81055 47.9131C9.79673 48.0447 9.82145 47.7901 9.81055 47.9131C9.83018 47.7199 9.78873 47.1099 9.81055 46.9131C9.79237 47.0375 9.82363 46.7988 9.81055 46.9131C9.828 46.7532 9.78655 46.0932 9.81055 45.9131C9.79455 46.0115 9.82582 45.8125 9.81055 45.9131C9.83236 45.7489 10.78 46.0947 10.8105 45.9131C10.8258 45.8169 10.7931 45.018 10.8105 44.9131C10.7924 45.0035 10.8258 44.8256 10.8105 44.9131C10.7866 45.0419 10.8302 44.7966 10.8105 44.9131C10.8324 44.7995 10.7866 44.0375 10.8105 43.9131C10.7778 44.0578 10.8389 43.7706 10.8105 43.9131C11.0199 42.9198 11.5153 41.8846 11.8105 40.9131C11.7691 41.0404 11.8476 40.7858 11.8105 40.9131C11.844 40.8053 11.7727 40.0252 11.8105 39.9131C12.0178 39.2772 12.5662 38.5359 12.8105 37.9131C12.7727 38.0035 12.844 37.8277 12.8105 37.9131C12.7684 38.0136 12.8484 37.8161 12.8105 37.9131C12.8593 37.7923 12.7531 37.0469 12.8105 36.9131C12.7618 37.0252 12.8527 36.8118 12.8105 36.9131C12.7422 37.0643 12.8789 36.7619 12.8105 36.9131C12.8614 36.801 12.7582 36.0252 12.8105 35.9131C13.734 33.9309 15.528 31.7108 16.8105 29.9131C16.6651 30.1055 16.956 29.7134 16.8105 29.9131C16.8811 29.8234 17.7357 29.0071 17.8105 28.9131C17.6477 29.1149 17.9712 28.7069 17.8105 28.9131C17.9051 28.7966 17.7109 28.0296 17.8105 27.9131C17.8985 27.8039 18.7117 28.0317 18.8105 27.9131C18.7095 28.0274 18.9073 27.7966 18.8105 27.9131C18.9232 27.7836 18.6942 27.0426 18.8105 26.9131L14.8105 22.9131C7.67559 30.731 3.81055 41.3035 3.81055 51.9131C3.81055 63.2613 8.74564 73.889 16.8105 81.9131C24.8755 89.9372 35.4047 93.9131 46.8105 93.9131C58.2521 93.9131 68.7413 88.9806 76.8105 80.9131C79.114 78.6126 81.0982 76.6584 82.8105 73.9131L78.8105 68.9131Z" fill="#5B5B5B"/>
<path d="M22.8105 74.9131C28.8401 81.0114 37.2799 83.9131 45.8105 83.9131C46.0773 83.9131 46.5423 83.9196 46.8105 83.9131C46.6793 83.9175 46.9439 83.9109 46.8105 83.9131C47.0074 83.9043 47.6137 83.924 47.8105 83.9131C47.6555 83.924 47.9677 83.9043 47.8105 83.9131C47.7449 83.9175 47.8913 83.9065 47.8105 83.9131H48.8105C48.6664 83.9291 48.9526 83.9021 48.8105 83.9131C48.688 83.9269 48.9396 83.9021 48.8105 83.9131C48.8999 83.9043 49.7356 83.9218 49.8105 83.9131C49.7038 83.9284 49.9151 83.9 49.8105 83.9131C50.2042 83.8642 50.432 83.9772 50.8105 83.9131C50.9173 83.8956 51.706 83.9306 51.8105 83.9131C51.8956 83.8978 51.7269 82.9284 51.8105 82.9131C51.7031 82.935 51.9194 82.8934 51.8105 82.9131C52.0989 82.8555 52.5308 82.9772 52.8105 82.9131C52.9987 82.8708 53.6245 82.9598 53.8105 82.9131C53.7622 82.9262 53.8589 82.9021 53.8105 82.9131C53.6858 82.9459 53.9504 82.8781 53.8105 82.9131C53.7103 82.9415 53.9194 82.8839 53.8105 82.9131C53.8999 82.8883 54.7334 82.935 54.8105 82.9131C54.7536 82.9313 54.8848 82.8912 54.8105 82.9131C54.732 82.9371 54.8891 82.8912 54.8105 82.9131C54.9418 82.873 55.6974 82.9503 55.8105 82.9131C55.9021 82.8847 55.7248 81.9393 55.8105 81.9131C56.0795 81.8249 56.5467 82.0079 56.8105 81.9131C56.7428 81.9393 56.8848 81.8868 56.8105 81.9131C56.7291 81.9466 56.905 81.8795 56.8105 81.9131C56.693 81.9619 56.9418 81.8642 56.8105 81.9131C56.9108 81.8752 57.7255 81.9481 57.8105 81.9131C57.6613 81.9751 57.9749 81.8467 57.8105 81.9131L58.8105 80.9131C58.6793 80.9743 58.9504 80.8533 58.8105 80.9131C58.7428 80.9444 58.8891 80.8774 58.8105 80.9131C58.918 80.862 59.701 80.9656 59.8105 80.9131C60.4818 80.5901 61.1703 80.2806 61.8105 79.9131C61.7449 79.951 61.8805 79.873 61.8105 79.9131C61.9591 79.827 61.6635 78.9991 61.8105 78.9131H62.8105C63.1343 78.7053 63.4501 78.1624 63.8105 77.9131C63.7125 77.9838 63.9086 77.8424 63.8105 77.9131C63.8848 77.8599 64.7384 77.9685 64.8105 77.9131C64.7586 77.9532 64.8653 77.8737 64.8105 77.9131C64.7211 77.9816 64.9021 77.8467 64.8105 77.9131C64.9129 77.8358 64.7147 76.9882 64.8105 76.9131C64.8783 76.8599 65.7514 76.959 65.8105 76.9131C65.7096 76.9947 65.9115 76.8336 65.8105 76.9131C65.7103 76.9969 65.9151 76.8292 65.8105 76.9131C66.003 76.7541 66.6202 76.0808 66.8105 75.9131C66.7521 75.9634 66.8675 75.862 66.8105 75.9131L62.8105 71.9131C58.1357 75.9422 51.9915 77.9131 45.8105 77.9131C31.5257 77.9131 19.8105 66.3591 19.8105 51.9131C19.8105 44.8735 22.8668 37.8689 27.8105 32.9131C30.1314 30.5879 32.8098 29.208 35.8105 27.9131L30.8105 22.9131C27.9237 24.4275 25.1292 26.5814 22.8105 28.9131C16.7348 35.0194 13.8105 43.2512 13.8105 51.9131C13.8098 60.5378 16.781 68.8155 22.8105 74.9131Z" fill="#5B5B5B"/>
<path d="M82.8105 42.9126C82.8105 31.5665 77.8755 20.9368 69.8105 12.9126C61.7456 4.88843 51.2164 0.912598 39.8105 0.912598C28.369 0.912598 17.8798 5.84213 9.81055 13.9126C7.50712 16.2109 5.52358 18.1672 3.81055 20.9126L7.81055 25.9126C9.05606 23.7286 11.1382 20.8007 12.8105 18.9126L13.8105 17.9126C20.7354 10.9786 29.989 6.9126 39.8105 6.9126C49.5921 6.9126 58.8944 11.0314 65.8105 17.9126C72.7274 24.7938 76.8105 33.1804 76.8105 42.9126C76.8105 43.6338 76.8542 45.1913 76.8105 45.9126C76.8062 46.0088 76.8171 45.8099 76.8105 45.9126C76.8062 45.9849 76.8149 45.8359 76.8105 45.9126C76.7996 46.0638 76.8236 46.7636 76.8105 46.9126C76.7996 47.0378 76.8236 46.7817 76.8105 46.9126C76.7909 47.1014 76.8324 47.7151 76.8105 47.9126C76.7975 48.0262 76.8287 47.7853 76.8105 47.9126C76.7924 48.0725 76.8345 48.7332 76.8105 48.9126C76.7953 49.0132 76.8258 48.8164 76.8105 48.9126C76.7887 49.079 75.8411 48.7303 75.8105 48.9126C75.7953 49.0088 75.828 49.8055 75.8105 49.9126C75.7953 50.0023 75.828 49.8229 75.8105 49.9126C75.7931 50.0291 75.8345 49.7838 75.8105 49.9126C75.7887 50.0262 75.8367 50.7882 75.8105 50.9126C75.7844 51.0529 75.8433 50.7679 75.8105 50.9126C75.599 51.9059 75.1057 52.9432 74.8105 53.9126C74.7684 54.0486 74.8571 53.7744 74.8105 53.9126C74.7778 54.0204 74.8476 54.7983 74.8105 54.9126C74.6011 55.5528 74.0556 56.2919 73.8105 56.9126C73.7771 56.998 73.8454 56.8229 73.8105 56.9126C73.7706 57.0117 73.8527 56.812 73.8105 56.9126C73.7618 57.0334 73.8658 57.7809 73.8105 57.9126C73.7684 58.0139 73.8593 57.8005 73.8105 57.9126C73.7422 58.0638 73.8789 57.7636 73.8105 57.9126C73.7597 58.0247 73.8636 58.8034 73.8105 58.9126C72.8871 60.8948 71.0931 63.1171 69.8105 64.9126C69.6629 65.1144 69.9567 64.7216 69.8105 64.9126C69.74 65.0045 68.8854 65.8186 68.8105 65.9126C68.6499 66.1188 68.9741 65.7108 68.8105 65.9126C68.7153 66.0291 68.9094 66.7961 68.8105 66.9126C68.7269 67.016 67.9036 66.8026 67.8105 66.9126C67.7095 67.0291 67.9116 66.799 67.8105 66.9126C67.6986 67.0421 67.9276 67.7831 67.8105 67.9126L71.8105 71.9126C78.9462 64.0946 82.8105 53.5237 82.8105 42.9126Z" fill="#5B5B5B"/>
<path d="M49.81 66.9126L54.81 71.9126C57.6973 70.3982 60.4915 68.2443 62.81 65.9126C68.8853 59.8064 71.81 51.5736 71.81 42.9126C71.81 34.288 68.8391 26.0108 62.81 19.9126C56.7802 13.8151 48.3393 10.9126 39.81 10.9126C39.5433 10.9126 39.0789 10.906 38.81 10.9126C38.6767 10.9148 38.9391 10.906 38.81 10.9126C38.6132 10.9213 38.0076 10.9017 37.81 10.9126C37.6529 10.9213 37.9658 10.9024 37.81 10.9126C37.7293 10.917 37.8756 10.9082 37.81 10.9126H36.81C36.6702 10.9235 36.9542 10.8987 36.81 10.9126C36.681 10.9257 36.9326 10.8995 36.81 10.9126C36.7206 10.9213 35.8865 10.9038 35.81 10.9126C35.7949 10.9148 35.823 10.9104 35.81 10.9126C35.7048 10.9235 35.9146 10.8987 35.81 10.9126C35.4164 10.9636 35.1885 10.8484 34.81 10.9126C34.7026 10.9301 33.9153 10.8922 33.81 10.9126C33.7271 10.9257 33.8893 11.8973 33.81 11.9126C33.7055 11.9323 33.9153 11.8907 33.81 11.9126C33.513 11.9702 33.0898 11.8484 32.81 11.9126C32.6219 11.9549 31.996 11.8659 31.81 11.9126C31.7617 11.9213 31.8583 11.9017 31.81 11.9126C31.6702 11.9483 31.9348 11.8798 31.81 11.9126C31.7026 11.9418 31.9124 11.882 31.81 11.9126C31.7206 11.9374 30.8893 11.8907 30.81 11.9126C30.7358 11.9345 30.867 11.8951 30.81 11.9126C30.7315 11.9345 30.8893 11.8856 30.81 11.9126C30.6788 11.9505 29.9239 11.8754 29.81 11.9126C29.7185 11.941 29.8951 12.8863 29.81 12.9126C29.5411 13.0015 29.0739 12.8178 28.81 12.9126C28.7379 12.9367 28.8778 12.8885 28.81 12.9126C28.7206 12.9461 28.8908 12.882 28.81 12.9126C28.6723 12.9636 28.9275 12.8659 28.81 12.9126C28.712 12.9498 27.8973 12.8776 27.81 12.9126C27.6464 12.9768 27.9585 12.8506 27.81 12.9126L26.81 13.9126C26.6702 13.9724 26.9434 13.8506 26.81 13.9126C26.7336 13.9476 26.8778 13.8812 26.81 13.9126C26.7026 13.9636 25.9196 13.8601 25.81 13.9126C25.1396 14.2356 24.4481 14.5451 23.81 14.9126C23.7379 14.9527 23.8756 14.8725 23.81 14.9126C23.6702 14.9942 23.9477 15.8287 23.81 15.9126H22.81C22.7163 15.9724 22.9081 15.8499 22.81 15.9126C22.4849 16.1204 22.1662 16.6632 21.81 16.9126C21.7185 16.9768 21.8994 16.8484 21.81 16.9126C21.7271 16.9724 20.8843 16.8572 20.81 16.9126C20.7596 16.9505 20.8605 16.8747 20.81 16.9126C20.7185 16.9789 20.8994 16.8441 20.81 16.9126C20.7069 16.9899 20.9059 17.8368 20.81 17.9126C20.7401 17.9658 19.867 17.8681 19.81 17.9126C19.7098 17.9921 19.9102 17.8287 19.81 17.9126C19.6961 18.003 19.9196 17.8222 19.81 17.9126C19.6154 18.0715 19.0004 18.7449 18.81 18.9126C18.7509 18.9636 18.8691 18.8623 18.81 18.9126L22.81 22.9126C27.4845 18.8836 33.6303 16.9126 39.81 16.9126C54.0937 16.9126 65.81 28.4691 65.81 42.9126C65.81 49.9543 62.7534 56.9547 57.81 61.9126C55.4937 64.2392 52.8112 65.6177 49.81 66.9126Z" fill="#5B5B5B"/>
<path d="M7.81007 109.913C7.65535 110.61 7.23469 110.551 6.81007 110.913C6.37274 111.261 5.44099 111.913 4.81007 111.913C4.29502 111.913 4.26012 111.171 3.81007 110.913C3.37203 110.655 3.01567 110.442 2.81007 109.913C2.59105 109.383 1.81007 108.623 1.81007 107.913C1.81007 107.358 2.62991 107.429 2.81007 106.913C2.99023 106.396 3.38475 106.222 3.81007 105.913C4.2474 105.616 4.16644 104.913 4.81007 104.913C5.37599 104.913 6.43703 105.628 6.81007 105.913C7.18311 106.184 7.61719 106.306 7.81007 106.913H8.81007C8.56562 106.112 8.41485 105.364 7.81007 104.913C7.2053 104.474 5.69816 103.913 4.81007 103.913C4.03785 103.913 3.46642 104.564 2.81007 104.913C2.16644 105.274 2.15768 105.241 1.81007 105.913C1.46247 106.584 0.810072 107.022 0.810072 107.913C0.810072 108.739 0.501326 110.202 0.810072 110.913C1.11882 111.636 2.2053 111.538 2.81007 111.913C3.40213 112.3 3.85769 112.913 4.81007 112.913C5.7243 112.913 7.16715 112.404 7.81007 111.913C8.45371 111.422 8.56562 110.855 8.81007 109.913H7.81007Z" fill="#5B5B5B"/>
<path d="M20.8105 104.913C20.114 104.525 19.6706 103.913 18.8105 103.913C17.4856 103.913 15.6443 104.1 14.8105 104.913C13.9775 105.725 13.8105 107.481 13.8105 108.913C13.8105 109.674 14.4424 110.23 14.8105 110.913C15.166 111.596 15.114 111.513 15.8105 111.913C16.5071 112.313 16.937 112.913 17.8105 112.913C18.6301 112.913 20.1147 112.274 20.8105 111.913C21.5214 111.564 21.4146 111.609 21.8105 110.913C22.193 110.229 22.8105 109.79 22.8105 108.913C22.8105 108.048 22.166 106.596 21.8105 105.913C21.4431 105.23 21.5071 105.3 20.8105 104.913ZM20.8105 110.913C20.2369 111.493 18.6983 111.913 17.8105 111.913C16.937 111.913 16.3984 111.48 15.8105 110.913C15.2369 110.332 14.8105 109.918 14.8105 108.913C14.8105 107.662 15.2092 106.441 15.8105 105.913C16.4119 105.384 17.9775 104.913 18.8105 104.913C19.4111 104.913 19.3322 105.642 19.8105 105.913C20.2747 106.184 20.5646 106.409 20.8105 106.913C21.0565 107.416 21.8105 108.23 21.8105 108.913C21.8105 109.982 21.3842 110.332 20.8105 110.913Z" fill="#5B5B5B"/>
<path d="M33.8105 103.913L31.8105 109.913C31.6438 110.406 31.9006 110.606 31.8105 110.913L30.8105 109.913L28.8105 103.913V106.913L30.8105 112.913H31.8105L33.8105 106.913V103.913Z" fill="#5B5B5B"/>
<path d="M27.8105 103.913H26.8105V112.913H27.8105V103.913Z" fill="#5B5B5B"/>
<path d="M34.8105 103.913H33.8105V112.913H34.8105V103.913Z" fill="#5B5B5B"/>
<path d="M40.8105 103.913H39.8105V112.913H40.8105V103.913Z" fill="#5B5B5B"/>
<path d="M46.8105 104.913C46.6219 104.573 46.1125 104.094 45.8105 103.913C45.521 103.718 45.2258 103.973 44.8105 103.913C44.5086 103.852 44.3765 103.913 43.8105 103.913H41.8105V104.913H43.8105C44.3143 104.913 44.6212 104.864 44.8105 104.913C45.0876 104.985 44.6468 105.682 44.8105 105.913C44.9867 106.143 45.8105 105.585 45.8105 105.913C45.8105 106.349 45.1001 107.67 44.8105 107.913C44.521 108.155 44.516 107.913 43.8105 107.913H41.8105V108.913H43.8105C45.0191 108.913 45.3448 108.397 45.8105 107.913C46.2887 107.427 46.8105 106.617 46.8105 105.913C46.8099 105.5 46.9867 105.252 46.8105 104.913Z" fill="#5B5B5B"/>
<path d="M55.8105 103.913L51.8105 112.913H52.8105L53.8105 111.913L54.8105 108.913L55.8105 106.913C55.9763 106.473 55.6996 105.352 55.8105 104.913C55.9489 105.339 56.5757 106.326 56.8105 106.913L57.8105 108.913H54.8105V109.913H57.8105L58.8105 112.913H60.8105L56.8105 103.913H55.8105Z" fill="#5B5B5B"/>
<path d="M65.8105 103.913H64.8105V112.913H65.8105V103.913Z" fill="#5B5B5B"/>
<path d="M70.8105 110.913V112.913H71.8105V103.913H70.8105V110.913Z" fill="#5B5B5B"/>
<path d="M66.8105 105.913L70.8105 111.913V109.913L66.8105 103.913V105.913Z" fill="#5B5B5B"/>
<path d="M82.8105 103.913L81.8105 106.913C81.4654 107.433 81.0756 107.487 80.8105 107.913L79.8105 108.913V112.913H80.8105V108.913L84.8105 103.913H82.8105Z" fill="#5B5B5B"/>
<path d="M80.0957 107.913L79.0957 106.913L78.0957 103.913H76.0957L79.0957 108.913L80.0957 107.913Z" fill="#5B5B5B"/>
<path d="M0.09375 116.913H1.09375V119.913V116.913H2.09375H0.09375Z" fill="#5B5B5B"/>
<path d="M5.99609 116.913L4.99609 119.913H5.99609V118.913H6.99609V119.913H7.99609L6.99609 116.913H5.99609ZM5.99609 118.913V117.913H6.99609V118.913H5.99609Z" fill="#5B5B5B"/>
<path d="M11.9958 118.913H12.9958C12.9935 119.088 12.0964 118.805 11.9958 118.913C11.8953 119.026 12.1505 119.913 11.9958 119.913C11.9023 119.913 12.0629 118.955 11.9958 118.913C12.0376 118.97 11.927 118.877 11.9958 118.913C11.9441 118.852 11.0123 119.011 10.9958 118.913C10.9764 118.815 10.9958 118.188 10.9958 117.913C10.9764 118.013 10.9958 117.638 10.9958 117.913C11.0129 117.818 11.9447 117.973 11.9958 117.913C11.9276 117.951 12.0376 117.855 11.9958 117.913C12.0629 117.876 11.9017 116.915 11.9958 116.913C12.1229 116.915 11.907 117.837 11.9958 117.913C12.0805 117.992 12.9635 117.8 12.9958 117.913C12.9541 117.678 13.1552 117.072 12.9958 116.913C12.8365 116.755 12.2487 116.916 11.9958 116.913C11.7894 116.915 11.1341 116.81 10.9958 116.913C10.8553 117.014 11.0594 117.783 10.9958 117.913C10.9564 117.98 11.0147 117.803 10.9958 117.913C10.9776 118.023 10.9958 118.587 10.9958 118.913C10.9776 118.8 10.9958 119.233 10.9958 118.913C10.9811 118.872 11.0053 118.973 10.9958 118.913C10.9764 118.87 11.0111 118.951 10.9958 118.913C11.0594 119.042 10.8553 119.815 10.9958 119.913C11.1335 120.015 11.7894 119.908 11.9958 119.913C12.2629 119.908 12.8194 120.101 12.9958 119.913C13.1711 119.723 12.9911 119.193 12.9958 118.913V117.913H11.9958V118.913Z" fill="#5B5B5B"/>
<path d="M15.9961 116.956V119.956H17.9961H15.9961V116.956Z" fill="#5B5B5B"/>
<path d="M27.9961 118.956L25.9961 116.956V119.956V117.956L27.9961 119.956V116.956V118.956Z" fill="#5B5B5B"/>
<path d="M30.9961 119.956H32.9961H30.9961V118.956H32.9961V117.956H30.9961V116.956H32.9961H30.9961V119.956Z" fill="#5B5B5B"/>
<path d="M40.9959 118.956H41.9959C41.9935 119.131 41.0964 118.848 40.9959 118.956C40.8953 119.069 41.1511 119.956 40.9959 119.956C40.9023 119.956 41.0629 118.998 40.9959 118.956C41.0376 119.013 40.9276 118.92 40.9959 118.956C40.9441 118.895 40.0123 119.054 39.9959 118.956C39.9764 118.858 39.9959 118.231 39.9959 117.956C39.9764 118.055 39.9959 117.68 39.9959 117.956C40.0123 117.861 40.9447 118.016 40.9959 117.956C40.9276 117.994 41.0376 117.898 40.9959 117.956C41.0629 117.919 40.9023 116.958 40.9959 116.956C41.1229 116.958 40.907 117.88 40.9959 117.956C41.0811 118.035 41.9635 117.843 41.9959 117.956C41.9541 117.721 42.1558 117.115 41.9959 116.956C41.8365 116.798 41.2488 116.959 40.9959 116.956C40.7894 116.958 40.1341 116.853 39.9959 116.956C39.8559 117.057 40.0594 117.826 39.9959 117.956C39.9564 118.023 40.0153 117.846 39.9959 117.956C39.9776 118.066 39.9959 118.63 39.9959 118.956C39.9776 118.843 39.9959 119.276 39.9959 118.956C39.9812 118.915 40.0053 119.016 39.9959 118.956C39.9764 118.913 40.0117 118.994 39.9959 118.956C40.0594 119.085 39.8553 119.858 39.9959 119.956C40.1335 120.058 40.7894 119.951 40.9959 119.956C41.2635 119.951 41.8194 120.144 41.9959 119.956C42.1706 119.766 41.9912 119.236 41.9959 118.956V117.956H40.9959V118.956Z" fill="#5B5B5B"/>
<path d="M47.9963 117.975C47.9343 117.843 48.1359 117.078 47.9963 116.975C47.8549 116.871 47.2081 116.978 46.9963 116.975C46.7869 116.978 46.1365 116.871 45.9963 116.975C45.8543 117.078 46.0608 117.843 45.9963 117.975C45.9563 118.044 46.0154 117.863 45.9963 117.975C45.9778 118.087 45.9963 117.643 45.9963 117.975C45.9963 118.302 45.9778 118.86 45.9963 118.975C45.982 118.934 46.0059 119.037 45.9963 118.975C45.9772 118.931 46.0118 119.014 45.9963 118.975C46.0608 119.107 45.8543 119.875 45.9963 119.975C46.1359 120.08 46.7869 119.97 46.9963 119.975C47.2081 119.97 47.8549 120.08 47.9963 119.975C48.1359 119.874 47.9349 119.107 47.9963 118.975C47.979 119.09 48.0411 118.906 47.9963 118.975C47.9963 119.302 48.0118 118.86 47.9963 118.975C47.9963 118.643 48.0118 118.088 47.9963 117.975C48.0417 118.044 47.9796 117.862 47.9963 117.975ZM47.9963 118.975C47.9766 119.075 47.0488 118.914 46.9963 118.975C46.9563 119.033 47.0631 118.939 46.9963 118.975C46.9259 119.018 47.0924 119.975 46.9963 119.975C46.9015 119.975 47.0643 119.019 46.9963 118.975C46.9265 118.939 47.0387 119.033 46.9963 118.975C46.9438 118.914 46.013 119.075 45.9963 118.975C45.9766 118.876 45.9963 118.257 45.9963 117.975C45.9766 118.077 45.9963 117.694 45.9963 117.975C46.0136 117.878 46.9444 118.037 46.9963 117.975C46.9271 118.014 47.0387 117.916 46.9963 117.975C47.0643 117.937 46.9015 116.978 46.9963 116.975C47.0924 116.978 46.9259 117.937 46.9963 117.975C46.9563 117.917 47.0631 118.014 46.9963 117.975C47.0488 118.037 47.9766 117.878 47.9963 117.975C47.9963 117.694 48.0148 118.077 47.9963 117.975C47.9957 118.257 48.0142 118.876 47.9963 118.975Z" fill="#5B5B5B"/>
<path d="M51.9961 119.975H53.9961H51.9961V118.975H53.9961V117.975H51.9961V116.975H53.9961H51.9961V119.975Z" fill="#5B5B5B"/>
<path d="M56.996 117.975C56.8739 117.959 57.0663 117.988 56.996 117.975C56.8693 117.95 57.0536 118.041 56.996 117.975C56.996 118.055 56.9384 117.911 56.996 117.975C56.9983 117.843 56.9125 118.042 56.996 117.975C57.0761 117.911 56.8762 116.975 56.996 116.975C57.2276 116.98 57.8036 117.839 57.996 117.975V116.975C57.7598 116.792 57.3152 116.983 56.996 116.975C56.7304 116.978 56.1406 116.829 55.996 116.975C55.8468 117.123 55.996 117.734 55.996 117.975C55.8773 117.835 55.996 118.176 55.996 117.975C56.1112 118.112 56.7748 118.936 56.996 118.975C56.8929 118.96 57.1193 118.994 56.996 118.975C57.2213 119.017 57.9983 118.77 57.996 118.975C57.9914 119.227 57.3296 119.97 56.996 119.975C56.7143 119.973 56.2005 119.155 55.996 118.975V119.975C56.2696 120.228 56.6152 119.975 56.996 119.975C57.5842 119.968 57.9833 119.504 57.996 118.975C57.996 118.779 58.1095 119.123 57.996 118.975C57.8796 118.825 57.2368 118.011 56.996 117.975Z" fill="#5B5B5B"/>
<path d="M67.9961 117.999H65.9961V116.999V119.999V118.999H67.9961V119.999V116.999V117.999Z" fill="#5B5B5B"/>
<path d="M71.9961 119.999H73.9961H71.9961V118.999H73.9961V117.999H71.9961V116.999H73.9961H71.9961V119.999Z" fill="#5B5B5B"/>
<path d="M78.9961 117.999C78.989 117.727 79.1633 117.145 78.9961 116.999C78.8573 116.869 78.2153 116.999 77.9961 116.999H76.9961V119.999V118.999H77.9961L78.9961 119.999L77.9961 118.999C78.3317 118.855 78.9914 118.398 78.9961 117.999ZM76.9961 117.999V116.999H77.9961C77.9287 116.938 78.1237 116.999 77.9961 116.999C78.0818 117.067 78.9937 117.846 78.9961 117.999C78.9961 118.127 78.0694 117.912 77.9961 117.999C77.9211 118.093 78.1456 117.996 77.9961 117.999H76.9961Z" fill="#5B5B5B"/>
<path d="M81.9961 119.999H83.9961H81.9961V118.999H83.9961V117.999H81.9961V116.999H83.9961H81.9961V119.999Z" fill="#5B5B5B"/>
</svg>
