<svg width="111" height="89" viewBox="0 0 111 89" fill="none" xmlns="http://www.w3.org/2000/svg">
<path d="M12.4258 86H13.4258V89V86H14.4258V85H12.4258V86Z" fill="#5B5B5B"/>
<path d="M19.4258 89H20.4258V88H22.4258V89H23.4258L21.4258 85L19.4258 89ZM20.4258 88L21.4258 86L22.4258 88H20.4258Z" fill="#5B5B5B"/>
<path d="M29.4258 86C29.9015 86 30.0949 85.5841 30.4258 86H31.4258C31.1738 85.7275 30.6866 85.1215 30.4258 85C30.1529 84.8786 29.7405 85 29.4258 85C28.8389 85 28.8347 85.6144 28.4258 86C28.0168 86.3841 27.4258 86.4482 27.4258 87C27.4258 87.5397 28.0241 87.6144 28.4258 88C28.8275 88.3841 28.8623 89 29.4258 89C30.0038 89 31.0515 88.397 31.4258 88C31.3557 88.2042 31.5916 87.8224 31.4258 88C31.4974 87.7799 31.4258 87.2854 31.4258 87H29.4258H30.4258C30.3976 87.2679 30.6641 87.808 30.4258 88C30.1875 88.1905 29.7252 88 29.4258 88C29.074 88 28.7268 88.2543 28.4258 88C28.1038 87.726 28.4258 87.4235 28.4258 87C28.4258 86.5902 28.136 86.2725 28.4258 86C28.714 85.7237 28.9999 86 29.4258 86Z" fill="#5B5B5B"/>
<path d="M37.4258 85V89H39.4258V88H38.4258V85H37.4258Z" fill="#5B5B5B"/>
<path d="M45.4258 85H44.4258V89H45.4258V85Z" fill="#5B5B5B"/>
<path d="M54.4258 89V85H53.4258V88L51.4258 85V89H52.4258V86L54.4258 89Z" fill="#5B5B5B"/>
<path d="M61.4258 86V85H59.4258V89H61.4258V88H60.4258V87H61.4258H60.4258V86H61.4258Z" fill="#5B5B5B"/>
<path d="M74.4258 89V85H73.4258V87H72.4258V85H71.4258V89H72.4258V87H73.4258V89H74.4258Z" fill="#5B5B5B"/>
<path d="M82.4258 86V85H80.4258V89H82.4258V88H81.4258V87H82.4258H81.4258V86H82.4258Z" fill="#5B5B5B"/>
<path d="M89.4258 86.0001C89.4258 85.6453 88.6206 85.2157 88.4258 85.0001C88.2496 84.8055 88.8226 85.0001 88.4258 85.0001H87.4258V89.0001V87.0001H88.4258V89.0001H89.4258L88.4258 87.0001C88.6254 86.9446 89.3041 87.1993 89.4258 87.0001C89.5481 86.8008 89.4258 86.2775 89.4258 86.0001ZM88.4258 87.0001H87.4258V86.0001H88.4258C88.4258 85.5992 88.843 86.0001 88.4258 86.0001C88.4264 86.4267 88.855 87.0001 88.4258 87.0001Z" fill="#5B5B5B"/>
<path d="M95.4258 89H97.4258V88H96.4258V87H97.4258H96.4258V86H97.4258V85H95.4258V89Z" fill="#5B5B5B"/>
<path d="M8.42471 79C8.23893 79.2467 7.66896 79.8063 7.42471 80C7.17971 80.1846 6.75704 79.8878 6.42471 80C6.09238 80.1121 5.82069 80 5.42471 80C4.89623 80 4.85252 80.2115 4.42471 80C3.9969 79.7884 3.73779 79.3745 3.42471 79C3.11162 78.6209 2.59346 78.5001 2.42471 78C2.25595 77.5005 2.42471 76.5996 2.42471 76C2.42471 75.3218 2.26335 74.5502 2.42471 74C2.58606 73.4497 3.14123 73.3566 3.42471 73C3.72299 72.6299 4.01614 72.1891 4.42471 72C4.83327 71.8108 4.95027 72 5.42471 72C5.84067 72 6.10126 71.8302 6.42471 72C6.74741 72.1697 7.19008 72.7009 7.42471 73C7.63491 73.2639 8.26779 73.6194 8.42471 74C8.58088 74.3805 8.34625 74.6747 8.42471 75H9.42471V71H8.42471V72C8.04797 71.7929 6.84067 71.1151 6.42471 71C6.00874 70.8856 5.93837 71 5.42471 71C4.73488 71 4.03163 70.7622 3.42471 71C2.81852 71.2377 1.86954 71.5641 1.42471 72C0.97469 72.4403 0.67858 73.3906 0.424706 74C0.170092 74.61 0.424706 75.2508 0.424706 76C0.424706 76.7484 0.165651 77.4033 0.424706 78C0.683761 78.5966 0.988753 79.5858 1.42471 80C1.8651 80.4142 2.85478 80.7801 3.42471 81C3.99463 81.2198 4.80371 81 5.42471 81C6.38321 81 6.73044 80.3985 7.42471 80C8.11897 79.6015 9.0043 78.9286 9.42471 78H8.42471C8.30702 78.2908 8.61049 78.7532 8.42471 79Z" fill="#5B5B5B"/>
<path d="M25.4193 77.9999C25.6771 77.3945 25.4193 76.7417 25.4193 75.9999C25.4193 75.2625 25.6727 74.6075 25.4193 73.9999C25.1658 73.3922 24.8677 72.43 24.4193 71.9999C23.9846 71.5786 23.0164 71.2317 22.4193 70.9999C21.8221 70.7673 21.093 70.9999 20.4193 70.9999C19.7701 70.9999 19.0136 70.7717 18.4193 70.9999C17.825 71.228 16.8677 71.5704 16.4193 71.9999C15.9658 72.4345 15.6771 73.4049 15.4193 73.9999C15.1615 74.5948 15.4193 75.2409 15.4193 75.9999C15.4193 76.6932 15.173 77.3922 15.4193 77.9999C15.6655 78.6075 15.9889 79.5742 16.4193 79.9999C16.8489 80.4345 17.8199 80.7561 18.4193 80.9999C19.0186 81.2437 19.7123 80.9999 20.4193 80.9999C21.0829 80.9999 21.8322 81.228 22.4193 80.9999C23.0071 80.7717 23.9752 80.4211 24.4193 79.9999C24.8771 79.5749 25.1607 78.606 25.4193 77.9999ZM23.4193 77.9999C23.2972 78.5046 22.6872 78.6003 22.4193 78.9999C22.1615 79.395 21.8301 79.7807 21.4193 79.9999C21.0084 80.2191 20.9305 79.9999 20.4193 79.9999C19.8748 79.9999 19.8106 80.2168 19.4193 79.9999C19.0272 79.7829 18.6771 79.3861 18.4193 78.9999C18.1514 78.6047 17.5435 78.5091 17.4193 77.9999C17.2951 77.4907 17.4193 76.6321 17.4193 75.9999C17.4193 75.4295 17.3023 74.518 17.4193 73.9999C17.5362 73.4817 17.1802 73.3861 17.4193 72.9999C17.6727 72.5965 19.0185 72.2414 19.4193 71.9999C19.82 71.7583 19.8459 71.9999 20.4193 71.9999C20.9305 71.9999 21.0228 71.7919 21.4193 71.9999C21.8157 72.2086 22.1564 72.6271 22.4193 72.9999C22.6821 73.3771 23.2835 73.4646 23.4193 73.9999C23.5557 74.5352 23.4193 75.3594 23.4193 75.9999C23.42 76.6254 23.5406 77.4951 23.4193 77.9999Z" fill="#5B5B5B"/>
<path d="M34.4189 78.9998C34.3548 79.2421 33.5911 78.8832 33.4189 78.9998C33.2855 79.0922 33.6634 78.9543 33.4189 78.9998C33.1752 79.046 32.6403 79.9834 32.4189 79.9998H36.4189C36.3153 79.9955 36.7588 79.0794 36.4189 78.9998C36.0791 78.9202 35.527 79.0879 35.4189 78.9998C35.2609 78.8825 35.495 79.267 35.4189 78.9998C35.3422 78.7318 34.4189 77.5144 34.4189 76.9998V71.9998H35.4189L38.4189 79.9998L42.4189 71.9998V78.9998C42.4189 79.1547 42.4905 78.8974 42.4189 78.9998C42.3474 79.1021 42.5717 78.9202 42.4189 78.9998C42.3206 79.046 41.6828 79.9749 41.4189 79.9998C41.1551 80.0247 40.5866 79.9955 40.4189 79.9998H45.4189C45.2855 79.9955 44.6455 79.0353 44.4189 78.9998C44.1924 78.9642 44.5076 79.0417 44.4189 78.9998C44.2512 78.9244 44.4778 79.1 44.4189 78.9998C44.3601 78.8996 44.4189 79.1462 44.4189 78.9998V71.9998C44.3601 72.1171 44.4189 71.8619 44.4189 71.9998C44.252 72.0502 44.4778 71.8825 44.4189 71.9998C44.2043 72.0332 44.5173 71.9706 44.4189 71.9998C44.6336 71.9664 45.2811 71.004 45.4189 70.9998H42.4189C42.4137 71.0751 41.4853 70.7759 41.4189 70.9998C41.3526 71.2237 41.5121 71.7944 41.4189 71.9998L39.4189 77.9998L36.4189 70.9998H32.4189C32.6358 71.0083 33.1968 71.9451 33.4189 71.9998C33.2662 71.8868 33.6411 72.0545 33.4189 71.9998C33.5568 72.1043 34.3444 71.8328 34.4189 71.9998C34.4927 72.1675 34.4189 72.7361 34.4189 72.9998V76.9998C34.4167 77.5684 34.483 78.7574 34.4189 78.9998Z" fill="#5B5B5B"/>
<path d="M60.419 73.9997C60.6275 73.6392 60.419 73.4679 60.419 72.9997C60.419 72.3288 60.0104 72.4026 59.419 71.9997C58.8275 71.5969 58.3666 70.9997 57.419 70.9997H52.419C52.2394 70.9768 52.5486 71.0083 52.419 70.9997C52.5985 71.0227 53.2365 71.9453 53.419 71.9997C53.3712 71.8815 53.5963 72.0585 53.419 71.9997C53.419 71.8521 53.4668 72.118 53.419 71.9997V78.9997C53.419 79.1646 53.4834 78.8944 53.419 78.9997C53.3546 79.1051 53.563 78.9453 53.419 78.9997C53.3328 79.0334 53.6369 79.9782 53.419 79.9997C53.2011 80.0213 52.5334 79.9911 52.419 79.9997H57.419C57.2373 79.9954 56.6369 80.0256 56.419 79.9997C56.2011 79.9747 55.5051 79.0299 55.419 78.9997C55.2467 78.941 55.474 79.1116 55.419 78.9997C55.364 78.8879 55.419 79.1474 55.419 78.9997V75.9997H56.419C56.9076 75.9997 57.9832 76.1094 58.419 75.9997C58.8548 75.8901 59.0548 75.2363 59.419 74.9997C59.7867 74.7646 60.2112 74.361 60.419 73.9997ZM58.419 73.9997C58.3661 74.217 58.5819 74.7969 58.419 74.9997C58.2561 75.2105 57.7419 74.8585 57.419 74.9997C57.0954 75.141 56.9359 74.9997 56.419 74.9997H55.419V71.9997H56.419C56.8258 71.9997 57.1461 71.8901 57.419 71.9997C57.6919 72.1094 58.251 71.8012 58.419 71.9997C58.5768 72.1854 58.3546 72.751 58.419 72.9997C58.4834 73.2485 58.419 73.7596 58.419 73.9997C58.4718 73.7825 58.4183 74.1718 58.419 73.9997Z" fill="#5B5B5B"/>
<path d="M77.419 79.9998C77.2953 79.9955 77.6027 79.0394 77.419 78.9998C77.2353 78.9601 76.533 79.0585 76.419 78.9998C76.2503 78.9041 76.5135 79.0996 76.419 78.9998C76.3245 78.8999 75.4932 79.1619 75.419 78.9998L72.419 70.9998H71.419C70.9181 72.084 71.0586 73.6117 70.419 74.9998C69.7794 76.3879 68.9491 76.8864 68.419 77.9998C68.3148 78.2165 67.5285 78.8765 67.419 78.9998C67.3095 79.123 67.6169 78.8871 67.419 78.9998C67.2945 79.0663 66.6124 78.9601 66.419 78.9998C66.2255 79.0394 66.548 79.9913 66.419 79.9998H70.419C70.0268 79.9835 69.7317 79.0918 69.419 78.9998C69.1063 78.9084 68.419 79.1662 68.419 78.9998C68.419 78.9289 69.3942 79.1124 69.419 78.9998C69.4437 78.8871 69.3545 78.1789 69.419 77.9998C69.332 78.2172 69.4887 77.8163 69.419 77.9998C69.506 77.783 69.2803 77.2915 69.419 76.9998H73.419L74.419 78.9998C74.4092 78.9459 74.4385 79.0415 74.419 78.9998C74.419 78.9622 74.4287 79.0536 74.419 78.9998C74.419 79.0918 74.6747 78.9367 74.419 78.9998C74.1633 79.0621 73.8059 79.9785 73.419 79.9998H77.419ZM69.419 75.9998L71.419 72.9998L73.419 75.9998H69.419Z" fill="#5B5B5B"/>
<path d="M91.4189 79.9998V72.9998C91.4189 72.5438 91.3588 72.2971 91.4189 71.9998C91.4791 71.7024 92.2465 72.105 92.4189 71.9998C92.1414 72.0631 92.5385 71.9329 92.4189 71.9998C92.6965 71.9372 93.2849 71.004 93.4189 70.9998H89.4189C89.5769 71.0083 90.1146 71.9244 90.4189 71.9998C90.2849 71.9201 90.7233 72.0752 90.4189 71.9998C90.5624 72.0922 91.3421 71.7216 91.4189 71.9998C91.4958 72.2779 91.4189 73.4805 91.4189 73.9998V77.9998L85.4189 70.9998H82.4189C82.6008 71.0083 83.124 71.9016 83.4189 71.9998C83.2465 71.8618 83.7139 72.0979 83.4189 71.9998C83.5487 72.1043 84.3421 71.807 84.4189 71.9998C84.4958 72.1925 84.4189 72.8077 84.4189 72.9998V76.9998C84.4189 77.5816 84.4813 78.7586 84.4189 78.9998C84.3566 79.2409 83.5863 78.8824 83.4189 78.9998C83.3421 79.0581 83.7262 78.9265 83.4189 78.9998C83.1124 79.073 82.5487 78.9912 82.4189 78.9998V79.9998H86.4189V78.9998C86.3088 78.9955 86.7639 79.0794 86.4189 78.9998C86.074 78.9201 85.5298 79.0922 85.4189 78.9998C85.2653 78.8824 85.4929 78.2764 85.4189 77.9998C85.345 77.7238 85.4189 77.5147 85.4189 76.9998V72.9998L91.4189 79.9998Z" fill="#5B5B5B"/>
<path d="M105.419 70.9997C105.559 71.0126 106.253 70.989 106.419 70.9997C106.584 71.0105 106.278 71.9667 106.419 71.9997C106.554 72.0334 107.336 71.9409 107.419 71.9997C107.419 71.9029 107.501 72.0586 107.419 71.9997C107.419 72.1174 106.818 72.4028 106.419 72.9997C106.019 73.5974 105.18 74.9314 104.419 75.9997C104.036 75.3999 103.656 74.3735 103.419 73.9997C103.182 73.6259 103.646 73.3757 103.419 72.9997C103.341 72.8691 102.506 73.1411 102.419 72.9997C102.331 72.8584 102.482 72.1095 102.419 71.9997C102.365 71.9029 102.448 72.0629 102.419 71.9997C102.389 71.9366 102.419 72.0248 102.419 71.9997C102.215 72.0499 102.419 71.9072 102.419 71.9997C102.623 71.9495 102.923 71.0083 103.419 70.9997H99.4185C99.5492 71.0083 99.2564 71.966 99.4185 71.9997C99.5807 72.0334 100.302 71.9366 100.419 71.9997C100.295 71.8778 100.579 72.0923 100.419 71.9997C100.543 72.1224 101.259 72.7594 101.419 72.9997C101.68 73.4051 102.064 73.4293 102.419 73.9997C102.773 74.5701 103.128 75.5097 103.419 75.9997C103.324 75.8204 103.55 76.2193 103.419 75.9997C103.513 76.1791 103.419 76.9316 103.419 76.9997V78.9997C103.419 79.1604 103.485 78.8899 103.419 78.9997C103.353 79.1095 103.593 78.9366 103.419 78.9997C103.311 79.0377 102.691 79.9768 102.419 79.9997C102.146 80.0227 101.554 79.9918 101.419 79.9997H106.419C106.259 79.9954 106.68 79.0478 106.419 78.9997C106.157 78.9509 105.521 79.0334 105.419 78.9997C105.249 78.9323 105.489 79.1116 105.419 78.9997C105.348 78.8878 105.419 79.1518 105.419 78.9997V76.9997C105.419 76.6869 105.361 76.1647 105.419 75.9997C105.24 76.2695 105.477 75.8347 105.419 75.9997C105.899 75.265 106.099 74.4768 106.419 73.9997C106.739 73.5226 107.041 72.4646 107.419 71.9997C107.612 71.7673 108.35 72.0542 108.419 71.9997C108.229 72.1016 108.487 71.9452 108.419 71.9997C108.496 71.9488 109.239 72.0521 109.419 71.9997C109.598 71.9466 109.336 71.004 109.419 70.9997H105.419Z" fill="#5B5B5B"/>
<path d="M110.566 19H77.5664H76.5664L93.5664 0H56.5664H51.5664H17.5664L34.5664 19H0.566406L19.5664 40L38.5664 62L55.5664 43L72.5664 62L90.5664 41L110.566 19ZM51.5664 4L38.5664 18L26.5664 4H51.5664ZM101.566 23L89.5664 37L76.5664 23H101.566ZM38.5664 24L51.5664 38H26.5664L38.5664 24ZM43.5664 23H67.5664L55.5664 37L43.5664 23ZM72.5664 24L84.5664 38H59.5664L72.5664 24ZM43.5664 19L55.5664 5L67.5664 19H43.5664ZM72.5664 18L59.5664 4H84.5664L72.5664 18ZM34.5664 23L21.5664 37L9.56641 23H34.5664ZM51.5664 42L38.5664 56L26.5664 42H51.5664ZM84.5664 42L72.5664 56L59.5664 42H84.5664Z" fill="#5B5B5B"/>
</svg>
