<svg width="97" height="99" viewBox="0 0 97 99" fill="none" xmlns="http://www.w3.org/2000/svg">
<path d="M9.41309 87H8.41309H7.41309C7.23679 87.8519 6.89912 88.5575 6.41309 89C5.91231 89.4259 6.13511 90 5.41309 90C4.82381 90 3.92791 89.3153 3.41309 89C2.91231 88.6847 2.64838 88.6464 2.41309 88C2.16234 87.3528 2.41309 85.8677 2.41309 85C2.41309 84.3212 2.20659 83.6306 2.41309 83C2.61958 82.3686 2.92705 82.3785 3.41309 82C3.91387 81.6373 4.67702 81 5.41309 81C6.06136 81 5.98605 81.6531 6.41309 82C6.84012 82.3311 7.19184 82.2587 7.41309 83V84L9.41309 83C9.13285 82.0217 8.10561 81.5524 7.41309 81C6.72056 80.4634 6.4294 80 5.41309 80C4.52952 80 3.16391 80.5741 2.41309 81C1.67702 81.4417 1.81132 82.1797 1.41309 83C1.01555 83.821 0.413086 83.9111 0.413086 85C0.413086 86.0099 1.0598 87.1323 1.41309 88C1.76637 88.8835 1.72056 89.5425 2.41309 90C3.09086 90.4734 4.32303 91 5.41309 91C6.4589 91 6.67631 90.5998 7.41309 90C8.14986 89.3987 9.13355 88.1522 9.41309 87Z" fill="#5B5B5B"/>
<path d="M22.3545 81C21.5803 80.5273 20.3103 80 19.3545 80C17.8828 80 16.2806 80.0073 15.3545 81C14.4291 81.9927 14.3545 84.2506 14.3545 86C14.3545 86.9296 14.9442 87.1651 15.3545 88C15.7488 88.8356 15.5803 89.5115 16.3545 90C17.1287 90.4885 18.3835 91 19.3545 91C20.2647 91 21.581 90.4411 22.3545 90C23.1439 89.5747 22.9139 88.8514 23.3545 88C23.7792 87.1644 24.3545 87.0716 24.3545 86C24.3545 84.9442 23.7495 83.8349 23.3545 83C22.9442 82.1659 23.128 81.4727 22.3545 81ZM21.3545 89C20.7171 89.7094 20.3414 90 19.3545 90C18.3835 90 18.0071 89.6936 17.3545 89C16.7171 88.2906 16.3545 87.2294 16.3545 86C16.3545 84.4715 16.6867 82.6463 17.3545 82C18.0223 81.3537 18.4284 81 19.3545 81C20.0223 81 20.8241 81.6694 21.3545 82C21.8704 82.3306 22.081 82.3853 22.3545 83C22.628 83.6147 22.3545 85.1651 22.3545 86C22.3545 87.3076 21.9919 88.2906 21.3545 89Z" fill="#5B5B5B"/>
<path d="M39.3545 80H38.3545V90H39.3545V80Z" fill="#5B5B5B"/>
<path d="M34.3545 88V87L31.3545 80V84L33.3545 90H35.3545L37.3545 84V80L35.3545 87C35.1535 87.5482 34.4623 87.6595 34.3545 88Z" fill="#5B5B5B"/>
<path d="M30.3545 80H29.3545V90H30.3545V80Z" fill="#5B5B5B"/>
<path d="M47.3545 80H45.3545V90H47.3545V80Z" fill="#5B5B5B"/>
<path d="M52.3545 81C52.0073 80.7652 50.8529 80.0736 50.3545 80C49.9922 79.9264 50.0344 80 49.3545 80H47.3545V81H49.3545C49.9588 81 50.1276 80.9411 50.3545 81C50.6865 81.0883 51.1579 81.721 51.3545 82C51.5655 82.2789 51.3545 82.6033 51.3545 83C51.3545 83.5292 51.7016 83.7056 51.3545 84C51.0073 84.2937 50.2008 85 49.3545 85H47.3545V86H49.3545C50.8043 86 51.7956 85.588 52.3545 85C52.9285 84.412 53.3545 83.8523 53.3545 83C53.3545 82.5003 53.5662 82.4114 53.3545 82C53.1291 81.5886 52.7175 81.2208 52.3545 81Z" fill="#5B5B5B"/>
<path d="M64.3545 80H62.3545L58.3545 90H60.3545V89L61.3545 86L62.3545 85V83C62.5394 82.5112 63.232 81.4888 63.3545 81C63.5086 81.474 63.0926 82.348 63.3545 83L65.3545 86H62.3545L61.3545 87H65.3545L66.3545 90H68.3545L64.3545 80Z" fill="#5B5B5B"/>
<path d="M75.3545 84L79.3545 90V87L75.3545 81V84Z" fill="#5B5B5B"/>
<path d="M80.3545 88V87V90H82.3545V80H80.3545V88Z" fill="#5B5B5B"/>
<path d="M74.3545 80H73.3545V90H74.3545V80Z" fill="#5B5B5B"/>
<path d="M92.3545 83C91.9409 83.5778 91.6732 84.526 91.3545 85L90.3545 86V90H92.3545V86L96.3545 80H94.3545L92.3545 83Z" fill="#5B5B5B"/>
<path d="M90.3389 83L88.3389 80H86.3389L90.3389 85L91.3389 84L90.3389 83Z" fill="#5B5B5B"/>
<path d="M0.337891 96H1.33789V99H2.33789V96H3.33789V95H0.337891V96Z" fill="#5B5B5B"/>
<path d="M10.3262 94L8.32617 98H9.32617V97H11.3262V98H12.3262L10.3262 94ZM9.32617 96L10.3262 95L11.3262 96H9.32617Z" fill="#5B5B5B"/>
<path d="M19.3262 97.0001H20.3262C20.0151 97.208 19.6922 97.0001 19.3262 97.0001C18.9295 97.0001 18.537 97.2376 18.3262 97.0001C18.1153 96.7632 18.3262 96.4096 18.3262 96.0001C18.3262 95.1697 18.5029 95.0001 19.3262 95.0001C19.8384 95.0001 20.1921 94.6011 20.3262 95.0001H21.3262C21.1428 94.2698 20.3571 94.0001 19.3262 94.0001C18.7348 94.0001 18.7382 93.6807 18.3262 94.0001C17.9141 94.3194 17.3262 95.3614 17.3262 96.0001C17.3262 96.5704 17.9561 96.6384 18.3262 97.0001C18.6954 97.3617 18.612 98.0001 19.3262 98.0001C20.0638 98.0001 20.8495 97.3836 21.3262 97.0001V96.0001H19.3262V97.0001Z" fill="#5B5B5B"/>
<path d="M30.3262 94H29.3262V98H32.3262V97H30.3262V94Z" fill="#5B5B5B"/>
<path d="M38.3262 94H37.3262V98H38.3262V94Z" fill="#5B5B5B"/>
<path d="M45.3262 97L44.3262 94H43.3262V98H44.3262V95L45.3262 98H46.3262V94H45.3262V97Z" fill="#5B5B5B"/>
<path d="M53.3262 96H55.3262H53.3262V95H55.3262V94H52.3262V98H55.3262V97H53.3262V96Z" fill="#5B5B5B"/>
<path d="M69.3262 96H68.3262V94H67.3262V98H68.3262V96H69.3262V98H70.3262V94H69.3262V96Z" fill="#5B5B5B"/>
<path d="M77.3262 96H79.3262H77.3262V95H79.3262V94H76.3262V98H79.3262V97H77.3262V96Z" fill="#5B5B5B"/>
<path d="M87.3262 96C87.9119 95.8989 88.3262 95.6272 88.3262 95C88.3262 94.5727 87.5418 94.1538 87.3262 94C87.1099 93.8462 86.7644 94 86.3262 94H85.3262V98H86.3262V96C86.2373 95.9413 86.5166 96 86.3262 96C86.4144 96.0587 86.2556 96.8692 86.3262 97L87.3262 98H88.3262V97C88.0538 96.4955 87.5506 96.1412 87.3262 96ZM86.3262 96V95C86.6881 95 87.2284 94.9354 87.3262 95C87.3262 94.8038 87.4239 95.0647 87.3262 95C87.3262 95.2081 87.4453 95.9361 87.3262 96C87.2064 96.0647 86.6641 96 86.3262 96Z" fill="#5B5B5B"/>
<path d="M94.3262 96H96.3262H94.3262V95H96.3262V94H93.3262V98H96.3262V97H94.3262V96Z" fill="#5B5B5B"/>
<path d="M46 59V60H45H26H24V58C24.0646 57.6728 23.9296 57.2992 24 57C24.0661 56.7119 24.9203 56.2903 25 56C24.9325 56.2181 25.0661 55.7694 25 56V55C24.9347 55.1791 25.0567 54.8217 25 55C25.0632 54.8025 24.9275 54.1967 25 54C25.089 53.7524 25.9023 54.2535 26 54C26.0862 53.7819 25.8995 53.2255 26 53C25.9548 53.0906 26.0352 52.9079 26 53C26.0912 52.7878 25.9102 52.1842 26 52C25.9627 52.0774 26.0373 51.9182 26 52C26.0919 51.8062 26.8988 51.1879 27 51C26.9418 51.0995 27.0352 50.9285 27 51C26.9978 51.0037 27.0022 50.9963 27 51C27.1321 50.748 26.8794 50.2056 27 50C27.1163 49.7974 27.8672 50.213 28 50C28.0373 49.9381 27.9612 49.0619 28 49C27.8507 49.2159 28.1314 48.7841 28 49C28.163 48.759 28.8047 48.2616 29 48C29.1271 47.8165 28.8183 47.2321 29 47C28.9433 47.0693 29.0531 46.9263 29 47C29.1472 46.815 29.8349 46.1916 30 46C29.977 46.0243 30.0373 45.9521 30 46C30.1623 45.8033 30.8277 46.1872 31 46C30.9461 46.056 31.0488 45.9447 31 46C31.1709 45.8069 30.7559 45.2498 31 45C32.8475 43.1041 34.7318 41.2269 37 40H26C23.0985 43.0152 21.6084 47.1168 20 51C18.3069 55.0984 17.0093 59.5089 17 64V66V67H53V39V37V36V32V9V8H54H73H75V10C73.9955 15.0754 71.5994 19.3106 68 23C67.2396 23.7781 65.8358 24.3317 65 25H75C76.8862 22.6052 77.8282 19.8347 79 17C80.6902 12.9031 81.9907 8.48965 82 4V1H46V59Z" fill="#5B5B5B"/>
<path d="M24 29V28V9V7H25C29.9057 7.99683 34.441 10.364 38 14C38.2434 14.2487 38.765 14.7398 39 15V6C37.0659 4.57812 35.1917 3.94551 33 3C29.0667 1.30127 24.3205 0 20 0H17V34H39V29H25H24Z" fill="#5B5B5B"/>
<path d="M74.9998 35V36V57V59H72.9998C67.9943 58.0108 63.648 55.6407 59.9998 52C59.9231 51.9234 60.0757 51.0774 59.9998 51V60C61.8221 61.2589 63.9409 62.133 65.9998 63C70.0293 64.7036 74.5912 66 78.9998 66H81.9998V30H59.9998V35H73.9998H74.9998Z" fill="#5B5B5B"/>
</svg>
