<?xml version="1.0" encoding="UTF-8"?>
<svg id="Layer_2" data-name="Layer 2" xmlns="http://www.w3.org/2000/svg" viewBox="0 0 344.71 213.5">
  <defs>
    <style>
      .cls-1, .cls-2 {
        fill: #fff;
      }

      .cls-2 {
        fill-rule: evenodd;
      }
    </style>
  </defs>
  <g id="Layer_1-2" data-name="Layer 1">
    <g>
      <g>
        <path class="cls-2" d="m231.34,23.04c12.82,12.94,20.66,30.31,20.66,49.4,0,40.01-34.43,72.45-76.91,72.45-12.63,0-25.75-.05-38.62-.05l31.56-82.32,16.72,43.94h14.61l31.98-83.42Z"/>
        <path class="cls-2" d="m191.92,79.06l-15.22-40.63h-17.8l-12.49,33.76v.04s-2.31,6.21-2.31,6.21h0s-7.32,19.67-7.32,19.67v-38.36c-2.77-7.07-5.51-14.13-8.22-21.31h-17.98l24.41,64.07-9.57,25.24c-16.65-13.29-27.22-33.13-27.22-55.3C98.19,32.44,132.62,0,175.1,0h47.23l-30.41,79.06Z"/>
      </g>
      <g>
        <path class="cls-1" d="m70.55,163.56l-12.87,49.37h-14.56l-7.88-32.49-8.16,32.49h-14.56L0,163.56h12.87l7.1,35.94,8.79-35.94h13.22l8.44,35.94,7.17-35.94h12.94Z"/>
        <path class="cls-1" d="m80.71,167.75c-1.34-1.24-2-2.78-2-4.61s.67-3.43,2-4.68c1.34-1.24,3.06-1.86,5.17-1.86s3.76.62,5.1,1.86c1.34,1.24,2,2.8,2,4.68s-.67,3.37-2,4.61c-1.34,1.24-3.04,1.86-5.1,1.86s-3.83-.62-5.17-1.86Zm11.15,5.94v39.25h-12.03v-39.25h12.03Z"/>
        <path class="cls-1" d="m140.6,196.2h-27.22c.19,2.44.97,4.3,2.36,5.59,1.38,1.29,3.08,1.93,5.1,1.93,3,0,5.09-1.26,6.26-3.8h12.8c-.66,2.58-1.84,4.9-3.55,6.96-1.71,2.06-3.86,3.68-6.44,4.85-2.58,1.17-5.46,1.76-8.65,1.76-3.84,0-7.27-.82-10.27-2.46-3-1.64-5.34-3.98-7.03-7.03-1.69-3.05-2.53-6.61-2.53-10.69s.83-7.64,2.5-10.69c1.66-3.05,4-5.39,7-7.03,3-1.64,6.45-2.46,10.34-2.46s7.17.8,10.13,2.39c2.95,1.59,5.26,3.87,6.93,6.82s2.5,6.4,2.5,10.34c0,1.12-.07,2.3-.21,3.52Zm-12.1-6.68c0-2.06-.7-3.7-2.11-4.92-1.41-1.22-3.16-1.83-5.27-1.83s-3.72.59-5.1,1.76c-1.38,1.17-2.24,2.84-2.57,4.99h15.05Z"/>
        <path class="cls-1" d="m204.04,163.56v9.64h-13.08v39.74h-12.03v-39.74h-13.08v-9.64h38.19Z"/>
        <path class="cls-1" d="m250.11,196.2h-27.22c.19,2.44.97,4.3,2.36,5.59,1.38,1.29,3.08,1.93,5.1,1.93,3,0,5.09-1.26,6.26-3.8h12.8c-.66,2.58-1.84,4.9-3.55,6.96-1.71,2.06-3.86,3.68-6.44,4.85-2.58,1.17-5.46,1.76-8.65,1.76-3.84,0-7.27-.82-10.27-2.46-3-1.64-5.34-3.98-7.03-7.03-1.69-3.05-2.53-6.61-2.53-10.69s.83-7.64,2.5-10.69c1.66-3.05,4-5.39,7-7.03,3-1.64,6.45-2.46,10.34-2.46s7.17.8,10.13,2.39c2.95,1.59,5.26,3.87,6.93,6.82s2.5,6.4,2.5,10.34c0,1.12-.07,2.3-.21,3.52Zm-12.1-6.68c0-2.06-.7-3.7-2.11-4.92-1.41-1.22-3.16-1.83-5.27-1.83s-3.72.59-5.1,1.76c-1.38,1.17-2.24,2.84-2.57,4.99h15.05Z"/>
        <path class="cls-1" d="m259.99,182.62c1.66-3.05,3.98-5.39,6.96-7.03,2.98-1.64,6.39-2.46,10.23-2.46,4.92,0,9.04,1.29,12.34,3.87,3.31,2.58,5.48,6.21,6.51,10.9h-12.8c-1.08-3-3.17-4.5-6.26-4.5-2.2,0-3.96.86-5.27,2.57-1.31,1.71-1.97,4.16-1.97,7.35s.66,5.64,1.97,7.35c1.31,1.71,3.07,2.57,5.27,2.57,3.1,0,5.18-1.5,6.26-4.5h12.8c-1.03,4.6-3.21,8.21-6.54,10.83-3.33,2.63-7.43,3.94-12.31,3.94-3.85,0-7.26-.82-10.23-2.46-2.98-1.64-5.3-3.98-6.96-7.03-1.67-3.05-2.5-6.61-2.5-10.69s.83-7.64,2.5-10.69Z"/>
        <path class="cls-1" d="m340.63,177.74c2.72,2.98,4.08,7.07,4.08,12.27v22.93h-11.96v-21.31c0-2.63-.68-4.66-2.04-6.12-1.36-1.45-3.19-2.18-5.49-2.18s-4.13.73-5.49,2.18c-1.36,1.46-2.04,3.49-2.04,6.12v21.31h-12.03v-52.05h12.03v18.08c1.22-1.73,2.88-3.12,4.99-4.15,2.11-1.03,4.48-1.55,7.1-1.55,4.5,0,8.11,1.49,10.83,4.47Z"/>
      </g>
    </g>
  </g>
</svg>